<?xml version="1.0" standalone="no"?>
<!DOCTYPE svg PUBLIC "-//W3C//DTD SVG 20010904//EN"
 "http://www.w3.org/TR/2001/REC-SVG-20010904/DTD/svg10.dtd">
<svg version="1.0" xmlns="http://www.w3.org/2000/svg"
 width="458.000000pt" height="458.000000pt" viewBox="0 0 458.000000 458.000000"
 preserveAspectRatio="xMidYMid meet">
<metadata>
Created by potrace 1.14, written by Peter Selinger 2001-2017
</metadata>
<g transform="translate(0.000000,458.000000) scale(0.100000,-0.100000)"
fill="#000000" stroke="none">
<path d="M429 3839 c-1 -755 -1 -712 -9 -719 -40 -33 -109 -350 -76 -350 7 0
8 -3 1 -8 -6 -4 -11 -18 -10 -32 0 -14 -3 -37 -7 -52 -4 -17 -2 -29 5 -32 8
-3 7 -8 -3 -15 -12 -8 -12 -11 -1 -11 11 0 11 -3 1 -15 -10 -12 -10 -15 0 -15
9 0 9 -4 -1 -17 -12 -14 -12 -15 0 -9 10 7 12 2 6 -23 -9 -40 -9 -269 0 -341
3 -30 13 -81 21 -113 7 -32 14 -65 14 -72 0 -33 44 -127 75 -162 27 -30 34
-46 34 -78 0 -22 1 -56 2 -75 2 -50 -4 -100 -12 -100 -14 0 -42 -130 -46 -215
-2 -49 -5 -133 -7 -185 -2 -52 -5 -98 -5 -102 -1 -5 -24 -16 -51 -23 -52 -14
-112 -73 -141 -139 -45 -104 -51 -323 -10 -403 11 -23 21 -46 21 -50 1 -15 39
-55 48 -49 4 2 27 -6 51 -20 24 -13 51 -24 61 -24 11 0 22 -4 25 -10 3 -5 21
-10 38 -11 40 -1 61 -10 65 -29 2 -8 5 -85 7 -170 1 -85 3 -158 4 -163 0 -4
821 -6 1824 -5 l1822 3 0 204 c0 191 1 204 19 215 26 14 43 27 67 49 10 9 24
17 29 17 6 0 10 5 10 11 0 5 4 8 9 5 16 -10 84 134 87 183 3 52 -13 150 -27
167 -5 6 -7 14 -4 17 3 4 2 5 -1 2 -4 -2 -20 15 -35 39 -36 54 -69 88 -106
106 -44 23 -50 32 -47 80 12 259 14 420 5 420 -6 0 -11 7 -11 15 0 8 -4 15 -8
15 -15 0 -29 44 -23 70 3 14 5 85 6 157 0 73 3 133 7 133 9 0 44 61 57 102 12
37 19 65 27 113 3 17 15 68 26 115 13 55 22 129 24 207 1 68 5 127 8 132 4 5
0 12 -6 14 -10 4 -10 6 0 6 8 1 10 6 6 13 -4 7 -8 24 -9 38 -1 14 -5 31 -9 38
-4 7 -4 12 1 12 4 0 1 5 -7 10 -13 8 -12 10 3 10 17 0 17 1 3 16 -9 8 -16 17
-16 19 0 2 7 11 16 19 13 14 13 16 1 16 -10 0 -14 8 -12 25 1 14 -2 25 -6 25
-5 0 -9 9 -9 20 0 11 -6 20 -12 20 -9 0 -10 3 -2 8 8 5 12 107 4 107 -1 0 -3
17 -4 38 -1 20 2 37 7 37 4 0 3 9 -3 19 -7 14 -8 235 -5 687 4 441 2 670 -4
678 -13 16 -74 19 -341 19 -192 0 -258 -3 -325 -17 -48 -10 -181 -60 -187 -70
-4 -6 -8 -8 -8 -4 0 4 -24 -5 -52 -19 -29 -15 -58 -26 -65 -26 -7 0 -13 -4
-13 -7 0 -4 -48 -32 -107 -61 -67 -33 -123 -69 -149 -94 -53 -54 -77 -65 -154
-70 -25 -1 -51 2 -57 7 -7 6 -13 7 -13 4 0 -4 -9 -2 -21 4 -11 6 -28 13 -37
15 -9 2 -36 8 -60 13 -44 10 -482 8 -542 -2 -19 -4 -57 -8 -85 -10 -60 -5
-150 -16 -179 -23 -53 -12 -122 -10 -151 5 -16 8 -57 41 -89 74 -32 32 -63 58
-68 58 -5 0 -25 15 -44 33 -41 37 -55 45 -80 50 -18 4 -26 6 -71 24 -10 3 -21
6 -25 5 -3 -1 -19 13 -35 31 -27 31 -78 52 -148 61 -16 2 -43 6 -60 9 -98 17
-131 20 -314 32 -41 3 -76 7 -79 9 -2 3 -13 1 -23 -4 -10 -6 -20 -6 -23 -1 -3
4 -48 9 -101 9 l-95 0 -1 -669z"/>
</g>
</svg>
